<svg width="173" height="43" viewBox="0 0 173 43" fill="none" xmlns="http://www.w3.org/2000/svg">
<g clip-path="url(#clip0_2_124)">
<g style="mix-blend-mode:darken">
<path d="M136.72 7.944C136.72 7.608 137.056 7.44 137.728 7.44C137.848 7.44 138.304 7.464 139.096 7.512C139.912 7.56 140.776 7.584 141.688 7.584C141.904 7.584 142.276 7.572 142.804 7.548C143.356 7.524 143.764 7.512 144.028 7.512C144.58 7.512 144.916 7.536 145.036 7.584C145.156 7.632 145.216 7.74 145.216 7.908C145.216 8.052 145.096 8.184 144.856 8.304C144.616 8.424 144.364 8.592 144.1 8.808C143.86 9 143.74 9.264 143.74 9.6C143.74 9.912 143.776 10.236 143.848 10.572C143.944 10.884 144.136 11.376 144.424 12.048C144.712 12.72 145 13.392 145.288 14.064C145.6 14.736 146.092 15.828 146.764 17.34C147.46 18.828 148.132 20.304 148.78 21.768C150.796 26.4 151.996 28.716 152.38 28.716C152.5 28.716 153.184 27.264 154.432 24.36C155.704 21.456 156.952 18.42 158.176 15.252C159.4 12.084 160.012 10.212 160.012 9.636C160.012 9.252 159.868 8.964 159.58 8.772C159.316 8.556 159.028 8.436 158.716 8.412C158.404 8.364 158.104 8.304 157.816 8.232C157.552 8.136 157.42 7.992 157.42 7.8C157.42 7.632 157.456 7.536 157.528 7.512C157.624 7.464 157.84 7.44 158.176 7.44C158.248 7.44 158.524 7.452 159.004 7.476C159.484 7.476 159.964 7.476 160.444 7.476C160.876 7.476 161.356 7.464 161.884 7.44C162.436 7.416 163.024 7.404 163.648 7.404C164.104 7.404 164.332 7.572 164.332 7.908C164.332 8.076 164.248 8.22 164.08 8.34C163.936 8.46 163.756 8.568 163.54 8.664C163.324 8.76 163.072 8.964 162.784 9.276C162.496 9.588 162.244 9.996 162.028 10.5L154 28.788C153.424 30.084 152.86 31.404 152.308 32.748C152.044 33.396 151.876 33.78 151.804 33.9C151.732 34.02 151.636 34.08 151.516 34.08C151.084 34.08 150.544 33.252 149.896 31.596C149.272 30.036 148.036 27.252 146.188 23.244C145.276 21.252 144.448 19.416 143.704 17.736C142.96 16.056 142.42 14.82 142.084 14.028C141.772 13.236 141.472 12.528 141.184 11.904C140.92 11.28 140.716 10.836 140.572 10.572C140.428 10.308 140.26 10.068 140.068 9.852C139.66 9.396 139.228 9.072 138.772 8.88C138.34 8.688 137.98 8.604 137.692 8.628C137.428 8.628 137.2 8.592 137.008 8.52C136.816 8.424 136.72 8.232 136.72 7.944Z" fill="#3A0C5E"/>
</g>
<g style="mix-blend-mode:darken">
<path d="M146.404 32.1671C146.405 32.5031 146.07 32.6727 145.398 32.6759C145.302 32.6763 145.146 32.6651 144.93 32.6421C144.714 32.6191 144.546 32.6079 144.426 32.6085C144.354 32.6088 143.226 32.5782 141.041 32.5165C138.857 32.4789 137.057 32.4634 135.641 32.4701C135.137 32.4725 133.901 32.5023 131.933 32.5597C129.942 32.6171 128.778 32.6466 128.442 32.6482C127.986 32.6504 127.756 32.3754 127.754 31.8234C127.753 31.6794 127.823 31.1991 127.963 30.3824C128.103 29.5898 128.172 28.8454 128.168 28.1494C128.167 27.9334 128.227 27.7412 128.346 27.5726C128.465 27.428 128.597 27.3554 128.741 27.3547C129.101 27.353 129.282 27.6042 129.284 28.1082C129.287 28.7561 129.494 29.3432 129.905 29.8692C130.315 30.3953 130.82 30.6689 131.421 30.6901C133.581 30.8478 135.238 30.924 136.39 30.9185L137.326 30.9141C138.574 30.9082 139.305 30.8087 139.52 30.6157C139.711 30.4468 139.828 29.8102 139.871 28.706C139.959 26.9776 139.998 24.9734 139.987 22.6934C139.981 21.4934 139.75 20.8825 139.294 20.8607L138.394 20.8649L136.882 20.8721L135.766 20.8774C134.326 20.8842 133.366 20.9367 132.887 21.035C132.407 21.1333 131.976 21.3153 131.593 21.5811C131.139 21.8953 130.865 22.3406 130.772 22.917C130.702 23.3254 130.535 23.5302 130.271 23.5314C130.055 23.5325 129.922 23.4971 129.874 23.4253C129.826 23.3535 129.801 23.1976 129.8 22.9577C129.799 22.7897 129.844 22.2374 129.936 21.301C130.028 20.3645 130.072 19.6563 130.07 19.1763C130.068 18.7203 130.054 18.2884 130.028 17.8805C129.978 17.4727 129.952 17.1729 129.952 16.9809C129.949 16.3809 130.031 16.0805 130.199 16.0797C130.559 16.078 130.825 16.3647 130.995 16.9399C131.336 17.9463 131.639 18.5329 131.904 18.6996C132.409 19.0332 133.562 19.1958 135.362 19.1873C136.082 19.1839 136.67 19.1811 137.126 19.1789C137.558 19.1769 137.846 19.1755 137.99 19.1748C138.11 19.1983 138.218 19.2097 138.314 19.2093C138.386 19.2089 138.458 19.2086 138.53 19.2083C139.514 19.2036 140.005 18.9733 140.003 18.5173C140 17.8213 140.008 16.9452 140.027 15.8891C140.046 14.857 140.054 14.005 140.05 13.333L140.044 11.893C140.035 10.165 139.743 9.21841 139.166 9.05314C138.565 8.86398 138.049 8.77043 137.617 8.77247C135.817 8.781 134.245 8.87244 132.902 9.0468C131.535 9.22128 130.516 9.43011 129.845 9.67329C129.15 9.94058 128.576 10.2193 128.121 10.5095C127.666 10.8236 127.38 11.101 127.261 11.3415C127.118 11.6062 126.987 11.8228 126.868 11.9914C126.725 12.1601 126.581 12.2448 126.437 12.2455C126.149 12.2468 126.004 12.0435 126.002 11.6355C125.997 10.6035 126.508 9.55709 127.535 8.49621C128.562 7.43534 129.46 6.90308 130.228 6.89944C131.956 6.89126 133.912 6.942 136.097 7.05165C138.257 7.16142 139.601 7.21505 140.129 7.21255C140.801 7.20937 141.641 7.14539 142.649 7.02062C143.656 6.91985 144.448 6.8681 145.024 6.86537C145.528 6.86298 145.78 6.98179 145.782 7.22179C145.783 7.43778 145.783 7.58178 145.784 7.65378C145.784 7.72578 145.748 7.78595 145.676 7.83429C145.605 7.88263 145.533 7.90697 145.461 7.90731C145.365 7.93177 145.209 7.98051 144.993 8.05353C144.754 8.12666 144.502 8.22386 144.239 8.3451C143.664 8.63583 143.295 9.20158 143.131 10.0424C142.943 10.8833 142.855 12.6477 142.868 15.3357L142.889 19.7996C142.892 20.4476 142.885 21.4557 142.867 22.8238C142.826 24.192 142.807 25.2601 142.811 26.0281C142.814 26.6761 142.843 27.7679 142.898 29.3037C142.925 29.9996 143.228 30.5381 143.806 30.9194C144.384 31.3007 145.057 31.5015 145.825 31.5219C146.209 31.52 146.402 31.7351 146.404 32.1671Z" fill="#DA1F1F"/>
</g>
<g style="mix-blend-mode:darken">
<path d="M104.656 6.70751C104.656 6.49151 104.752 6.37151 104.944 6.34752C105.16 6.29952 105.676 6.27552 106.492 6.27552L109.624 6.27552C110.224 6.27552 111.328 6.25152 112.936 6.20351C114.544 6.15552 115.78 6.13152 116.644 6.13152C118.3 6.13152 119.956 6.38352 121.612 6.88751C123.268 7.39152 124.792 8.12352 126.184 9.08352C127.576 10.0195 128.704 11.2555 129.568 12.7915C130.432 14.3035 130.864 15.9955 130.864 17.8675C130.864 19.5475 130.744 21.0115 130.504 22.2595C130.288 23.4835 129.916 24.5515 129.388 25.4635C128.86 26.3515 128.332 27.0835 127.804 27.6595C127.276 28.2115 126.556 28.8715 125.644 29.6395C124.924 30.2155 123.88 30.7555 122.512 31.2595C121.144 31.7635 119.74 32.0155 118.3 32.0155C118.156 32.0155 116.932 31.9795 114.628 31.9075C112.324 31.8595 110.668 31.8355 109.66 31.8355C108.82 31.8355 108.04 31.8595 107.32 31.9075C106.6 31.9795 106.18 32.0155 106.06 32.0155C105.484 32.0155 105.196 31.8595 105.196 31.5475C105.196 31.3555 105.232 31.2235 105.304 31.1515C105.4 31.0555 105.58 30.9715 105.844 30.8995C106.132 30.8275 106.336 30.7675 106.456 30.7195C106.84 30.5515 107.188 30.2395 107.5 29.7835C107.836 29.3035 108.004 28.8355 108.004 28.3795C108.004 27.0355 108.004 25.3195 108.004 23.2315C108.028 21.1435 108.04 19.6075 108.04 18.6235C108.04 17.7595 108.028 16.4155 108.004 14.5915C108.004 12.7435 108.004 11.0395 108.004 9.47952C108.004 9.07152 107.8 8.66352 107.392 8.25552C107.008 7.82352 106.576 7.59552 106.096 7.57151C105.76 7.54751 105.508 7.52351 105.34 7.49952C105.196 7.47552 105.04 7.40352 104.872 7.28352C104.728 7.13951 104.656 6.94751 104.656 6.70751ZM111.028 26.8315C111.028 27.2875 111.028 27.6595 111.028 27.9475C111.052 28.2355 111.1 28.4995 111.172 28.7395C111.268 28.9795 111.34 29.1475 111.388 29.2435C111.436 29.3395 111.58 29.4475 111.82 29.5675C112.06 29.6875 112.24 29.7715 112.36 29.8195C112.504 29.8435 112.792 29.9155 113.224 30.0355C113.656 30.1555 114.016 30.2515 114.304 30.3235C115.144 30.5635 116.02 30.6835 116.932 30.6835L117.652 30.6835C119.284 30.6835 120.676 30.4555 121.828 29.9995C122.98 29.5195 124.084 28.7755 125.14 27.7675C126.916 26.0635 127.804 23.3035 127.804 19.4875C127.804 17.5675 127.42 15.8275 126.652 14.2675C125.908 12.7075 124.924 11.4715 123.7 10.5595C122.476 9.62352 121.156 8.91552 119.74 8.43552C118.324 7.93152 116.896 7.67952 115.456 7.67952C114.808 7.67952 114.328 7.67952 114.016 7.67952C113.728 7.67952 113.38 7.71552 112.972 7.78752C112.588 7.83552 112.324 7.88352 112.18 7.93152C112.06 7.95552 111.904 8.07552 111.712 8.29152C111.52 8.48352 111.4 8.65152 111.352 8.79552C111.328 8.93952 111.28 9.22752 111.208 9.65952C111.16 10.0675 111.136 10.4275 111.136 10.7395C111.136 11.0515 111.136 11.5555 111.136 12.2515C111.136 12.7795 111.124 14.0275 111.1 15.9955C111.076 17.9395 111.064 18.9955 111.064 19.1635C111.064 20.6035 111.052 22.1635 111.028 23.8435C111.028 25.5235 111.028 26.5195 111.028 26.8315Z" fill="#2FCA80"/>
</g>
<g style="mix-blend-mode:darken">
<path d="M92.1481 20.4981C92.1481 20.2581 92.2441 20.0061 92.4361 19.7421C92.6521 19.4781 93.3241 18.7341 94.4521 17.5101C97.3081 14.4141 100.26 11.1501 103.308 7.71812C103.356 7.64612 103.452 7.52612 103.596 7.35812C103.764 7.16612 103.896 7.01012 103.992 6.89012C104.112 6.74612 104.244 6.60212 104.388 6.45812C104.556 6.31412 104.7 6.20612 104.82 6.13412C104.94 6.03812 105.048 5.99012 105.144 5.99012C105.408 5.99012 105.54 6.27812 105.54 6.85412C105.54 6.87812 105.504 7.71812 105.432 9.37412C105.36 11.0061 105.276 12.7461 105.18 14.5941C105.108 16.4181 105.072 17.5821 105.072 18.0861C105.072 18.4221 105.288 18.5901 105.72 18.5901C106.296 18.5901 106.764 18.5541 107.124 18.4821C107.484 18.3861 107.712 18.2901 107.808 18.1941C107.904 18.0741 108 17.9781 108.096 17.9061C108.192 17.8101 108.3 17.7621 108.42 17.7621C108.732 17.7621 108.888 17.9181 108.888 18.2301C108.888 18.3741 108.852 18.5421 108.78 18.7341C108.732 18.9261 108.648 19.1661 108.528 19.4541C108.408 19.7181 108.324 19.9101 108.276 20.0301C108.252 20.0781 108.216 20.1741 108.168 20.3181C108.12 20.4381 108.072 20.5461 108.024 20.6421C108 20.7141 107.952 20.7981 107.88 20.8941C107.832 20.9901 107.772 21.0621 107.7 21.1101C107.628 21.1581 107.544 21.1821 107.448 21.1821C107.256 21.1821 106.92 21.1701 106.44 21.1461C105.96 21.1461 105.636 21.1461 105.468 21.1461C105.252 21.1461 105.108 21.1941 105.036 21.2901C104.988 21.3861 104.964 21.5661 104.964 21.8301C104.964 22.1901 104.976 22.8141 105 23.7021C105.048 24.6141 105.072 25.2621 105.072 25.6461C105.072 25.6941 105.072 25.8261 105.072 26.0421C105.096 26.2581 105.108 26.4381 105.108 26.5821C105.108 27.0381 104.916 27.3261 104.532 27.4461C103.908 27.6141 103.38 27.6981 102.948 27.6981C102.492 27.6981 102.264 27.5301 102.264 27.1941C102.264 27.0981 102.276 26.9781 102.3 26.8341C102.348 26.7141 102.384 26.5341 102.408 26.2941C102.432 26.0781 102.456 25.5621 102.48 24.7461C102.528 23.9301 102.552 22.8741 102.552 21.5781C102.552 21.1941 102.444 21.0021 102.228 21.0021C101.94 21.0021 101.184 21.0141 99.9601 21.0381C98.7361 21.0621 97.7041 21.0741 96.8641 21.0741C96.3361 21.0741 95.6641 21.0621 94.8481 21.0381C94.0561 21.0381 93.4921 21.0381 93.1561 21.0381C92.8681 21.0381 92.6641 21.0261 92.5441 21.0021C92.4481 21.0021 92.3521 20.9661 92.2561 20.8941C92.1841 20.7981 92.1481 20.6661 92.1481 20.4981ZM95.4961 18.2661C95.4961 18.5541 95.9521 18.6981 96.8641 18.6981L98.1961 18.6981C98.4601 18.6981 98.9161 18.7101 99.5641 18.7341C100.236 18.7341 100.728 18.7341 101.04 18.7341C101.688 18.7341 102.12 18.7221 102.336 18.6981C102.552 18.6501 102.66 18.5421 102.66 18.3741C102.732 14.9661 102.768 12.5781 102.768 11.2101C102.768 10.6341 102.708 10.3461 102.588 10.3461C102.468 10.3461 102.072 10.7061 101.4 11.4261C100.728 12.1221 100.272 12.6141 100.032 12.9021C99.5761 13.4781 98.9401 14.2101 98.1241 15.0981C97.3321 15.9621 96.6961 16.6821 96.2161 17.2581C95.7361 17.8101 95.4961 18.1461 95.4961 18.2661Z" fill="#DD425E"/>
</g>
<g style="mix-blend-mode:darken">
<path d="M86.72 6.98C86.72 6.62 87.056 6.44 87.728 6.44C87.968 6.44 88.52 6.464 89.384 6.512C90.248 6.56 91.052 6.584 91.796 6.584C92.252 6.584 92.684 6.572 93.092 6.548C93.524 6.524 94.148 6.512 94.964 6.512C95.612 6.512 95.936 6.68 95.936 7.016C95.936 7.208 95.384 7.532 94.28 7.988C93.512 8.3 93.128 9.68 93.128 12.128C93.128 15.368 93.104 18.236 93.056 20.732C93.032 23.204 93.02 24.776 93.02 25.448C93.02 27.464 93.32 28.916 93.92 29.804C94.448 30.548 95.024 30.92 95.648 30.92C95.696 30.92 95.816 30.932 96.008 30.956C96.2 30.956 96.32 30.956 96.368 30.956C96.536 30.956 96.704 31.004 96.872 31.1C97.04 31.172 97.124 31.256 97.124 31.352C97.124 31.616 97.052 31.796 96.908 31.892C96.788 31.964 96.56 32 96.224 32C95.504 32 94.832 31.976 94.208 31.928C93.608 31.88 93.14 31.856 92.804 31.856C92.132 31.856 91.4 31.892 90.608 31.964C89.816 32.012 89.228 32.036 88.844 32.036C87.764 32.036 87.224 31.856 87.224 31.496C87.224 31.28 87.332 31.136 87.548 31.064C87.788 30.968 88.052 30.908 88.34 30.884C88.628 30.836 88.928 30.68 89.24 30.416C89.552 30.128 89.768 29.72 89.888 29.192C89.936 29.024 90.008 27.668 90.104 25.124C90.224 22.556 90.284 20.708 90.284 19.58V17.528C90.284 17.216 90.284 16.628 90.284 15.764C90.308 14.876 90.32 14.168 90.32 13.64V11.984C90.32 10.928 90.272 10.052 90.176 9.356C90.104 8.78 89.78 8.336 89.204 8.024C88.652 7.712 88.076 7.544 87.476 7.52C86.972 7.496 86.72 7.316 86.72 6.98Z" fill="#5D1199"/>
</g>
<g style="mix-blend-mode:darken">
<path d="M62.584 20.336C62.584 17.72 63.088 15.368 64.096 13.28C65.104 11.192 66.652 9.512 68.74 8.24C70.852 6.944 73.348 6.296 76.228 6.296C77.692 6.296 79.168 6.512 80.656 6.944C82.144 7.376 83.332 7.808 84.22 8.24L85.552 8.924C85.624 8.924 85.744 8.864 85.912 8.744C86.08 8.624 86.212 8.564 86.308 8.564C86.428 8.564 86.548 8.612 86.668 8.708C86.788 8.804 86.848 8.948 86.848 9.14C86.872 9.836 86.92 10.58 86.992 11.372C87.088 12.14 87.172 12.776 87.244 13.28C87.316 13.784 87.352 14.084 87.352 14.18C87.352 14.612 87.208 14.828 86.92 14.828C86.704 14.828 86.5 14.66 86.308 14.324C83.98 9.956 80.62 7.772 76.228 7.772C73.228 7.772 70.768 8.732 68.848 10.652C66.928 12.572 65.968 15.08 65.968 18.176C65.968 19.88 66.184 21.476 66.616 22.964C67.072 24.452 67.744 25.82 68.632 27.068C69.544 28.292 70.792 29.264 72.376 29.984C73.96 30.704 75.808 31.064 77.92 31.064C81.376 31.064 84.28 29.264 86.632 25.664C86.728 25.496 86.908 25.412 87.172 25.412C87.388 25.412 87.496 25.58 87.496 25.916C87.496 26.18 87.448 26.54 87.352 26.996C87.28 27.428 87.184 27.92 87.064 28.472C86.944 29 86.872 29.324 86.848 29.444C86.8 29.708 86.608 29.924 86.272 30.092C84.976 30.716 83.956 31.184 83.212 31.496C82.492 31.808 81.568 32.084 80.44 32.324C79.312 32.588 78.16 32.72 76.984 32.72C74.896 32.72 73.012 32.468 71.332 31.964C69.652 31.46 68.272 30.8 67.192 29.984C66.136 29.168 65.248 28.22 64.528 27.14C63.808 26.036 63.304 24.932 63.016 23.828C62.728 22.7 62.584 21.536 62.584 20.336Z" fill="#19D9F3"/>
</g>
<g style="mix-blend-mode:darken">
<path d="M47.72 6.944C47.72 6.56 48.068 6.368 48.764 6.368H54.74C55.292 6.368 55.928 6.356 56.648 6.332C57.368 6.284 57.932 6.26 58.34 6.26C60.5 6.26 62.348 6.812 63.884 7.916C65.42 8.996 66.188 10.46 66.188 12.308C66.188 13.532 65.948 14.612 65.468 15.548C65.012 16.46 64.496 17.12 63.92 17.528C63.368 17.936 62.852 18.296 62.372 18.608C61.916 18.896 61.688 19.088 61.688 19.184C61.688 19.472 62.696 21.032 64.712 23.864C66.728 26.672 68.108 28.472 68.852 29.264C69.764 30.392 70.868 30.956 72.164 30.956C72.5 30.956 72.668 31.1 72.668 31.388C72.668 31.748 72.524 31.988 72.236 32.108C71.948 32.228 71.204 32.288 70.004 32.288C68.876 32.288 67.844 32.012 66.908 31.46C65.708 30.764 63.68 28.076 60.824 23.396C60.656 23.132 60.536 22.94 60.464 22.82C59.312 20.948 58.424 20.012 57.8 20.012H57.044H54.848C54.56 20.012 54.38 20.132 54.308 20.372C54.26 20.612 54.236 21.344 54.236 22.568C54.236 23.72 54.236 24.668 54.236 25.412C54.236 26.156 54.236 26.636 54.236 26.852C54.26 27.044 54.272 27.212 54.272 27.356C54.272 27.476 54.272 27.572 54.272 27.644C54.272 28.628 54.5 29.396 54.956 29.948C55.412 30.476 55.916 30.788 56.468 30.884C57.044 30.956 57.56 31.052 58.016 31.172C58.472 31.268 58.7 31.436 58.7 31.676C58.7 32.06 58.484 32.252 58.052 32.252C58.028 32.252 57.2 32.204 55.568 32.108C53.936 32.036 53.048 32 52.904 32C52.208 32 51.38 32.024 50.42 32.072C49.46 32.12 48.968 32.144 48.944 32.144C48.44 32.144 48.188 31.952 48.188 31.568C48.188 31.304 48.344 31.124 48.656 31.028C48.968 30.908 49.316 30.824 49.7 30.776C50.084 30.728 50.432 30.464 50.744 29.984C51.056 29.504 51.212 28.82 51.212 27.932C51.212 27.308 51.212 25.628 51.212 22.892C51.236 20.156 51.248 18.056 51.248 16.592C51.248 15.104 51.236 13.748 51.212 12.524C51.212 11.276 51.212 10.604 51.212 10.508C51.212 9.62 51.032 8.948 50.672 8.492C50.312 8.012 49.904 7.748 49.448 7.7C49.016 7.628 48.62 7.544 48.26 7.448C47.9 7.352 47.72 7.184 47.72 6.944ZM54.236 12.704C54.236 15.176 54.248 16.712 54.272 17.312C54.296 17.888 54.38 18.224 54.524 18.32C54.884 18.536 55.4 18.644 56.072 18.644H56.432H57.476C59.516 18.644 60.968 18.176 61.832 17.24C62.72 16.304 63.164 15.104 63.164 13.64C63.164 12.152 62.576 10.796 61.4 9.572C60.248 8.348 58.496 7.736 56.144 7.736C55.256 7.736 54.716 7.976 54.524 8.456C54.332 8.912 54.236 9.992 54.236 11.696V12.704Z" fill="#1FB71C"/>
</g>
<g style="mix-blend-mode:darken">
<path d="M33.72 6.836C33.72 6.5 34.056 6.332 34.728 6.332C34.824 6.332 34.98 6.344 35.196 6.368C35.412 6.392 35.58 6.404 35.7 6.404C35.772 6.404 36.9 6.44 39.084 6.512C41.268 6.56 43.068 6.584 44.484 6.584C44.988 6.584 46.224 6.56 48.192 6.512C50.184 6.464 51.348 6.44 51.684 6.44C52.14 6.44 52.368 6.716 52.368 7.268C52.368 7.412 52.296 7.892 52.152 8.708C52.008 9.5 51.936 10.244 51.936 10.94C51.936 11.156 51.876 11.348 51.756 11.516C51.636 11.66 51.504 11.732 51.36 11.732C51 11.732 50.82 11.48 50.82 10.976C50.82 10.328 50.616 9.74 50.208 9.212C49.8 8.684 49.296 8.408 48.696 8.384C46.536 8.216 44.88 8.132 43.728 8.132H42.792C41.544 8.132 40.812 8.228 40.596 8.42C40.404 8.588 40.284 9.224 40.236 10.328C40.14 12.056 40.092 14.06 40.092 16.34C40.092 17.54 40.32 18.152 40.776 18.176H41.676H43.188H44.304C45.744 18.176 46.704 18.128 47.184 18.032C47.664 17.936 48.096 17.756 48.48 17.492C48.936 17.18 49.212 16.736 49.308 16.16C49.38 15.752 49.548 15.548 49.812 15.548C50.028 15.548 50.16 15.584 50.208 15.656C50.256 15.728 50.28 15.884 50.28 16.124C50.28 16.292 50.232 16.844 50.136 17.78C50.04 18.716 49.992 19.424 49.992 19.904C49.992 20.36 50.004 20.792 50.028 21.2C50.076 21.608 50.1 21.908 50.1 22.1C50.1 22.7 50.016 23 49.848 23C49.488 23 49.224 22.712 49.056 22.136C48.72 21.128 48.42 20.54 48.156 20.372C47.652 20.036 46.5 19.868 44.7 19.868C43.98 19.868 43.392 19.868 42.936 19.868C42.504 19.868 42.216 19.868 42.072 19.868C41.952 19.844 41.844 19.832 41.748 19.832C41.676 19.832 41.604 19.832 41.532 19.832C40.548 19.832 40.056 20.06 40.056 20.516C40.056 21.212 40.044 22.088 40.02 23.144C39.996 24.176 39.984 25.028 39.984 25.7V27.14C39.984 28.868 40.272 29.816 40.848 29.984C41.448 30.176 41.964 30.272 42.396 30.272C44.196 30.272 45.768 30.188 47.112 30.02C48.48 29.852 49.5 29.648 50.172 29.408C50.868 29.144 51.444 28.868 51.9 28.58C52.356 28.268 52.644 27.992 52.764 27.752C52.908 27.488 53.04 27.272 53.16 27.104C53.304 26.936 53.448 26.852 53.592 26.852C53.88 26.852 54.024 27.056 54.024 27.464C54.024 28.496 53.508 29.54 52.476 30.596C51.444 31.652 50.544 32.18 49.776 32.18C48.048 32.18 46.092 32.12 43.908 32C41.748 31.88 40.404 31.82 39.876 31.82C39.204 31.82 38.364 31.88 37.356 32C36.348 32.096 35.556 32.144 34.98 32.144C34.476 32.144 34.224 32.024 34.224 31.784C34.224 31.568 34.224 31.424 34.224 31.352C34.224 31.28 34.26 31.22 34.332 31.172C34.404 31.124 34.476 31.1 34.548 31.1C34.644 31.076 34.8 31.028 35.016 30.956C35.256 30.884 35.508 30.788 35.772 30.668C36.348 30.38 36.72 29.816 36.888 28.976C37.08 28.136 37.176 26.372 37.176 23.684V19.22C37.176 18.572 37.188 17.564 37.212 16.196C37.26 14.828 37.284 13.76 37.284 12.992C37.284 12.344 37.26 11.252 37.212 9.716C37.188 9.02 36.888 8.48 36.312 8.096C35.736 7.712 35.064 7.508 34.296 7.484C33.912 7.484 33.72 7.268 33.72 6.836Z" fill="#E46E00"/>
</g>
<g style="mix-blend-mode:darken">
<path d="M10.72 6.98C10.72 6.62 10.936 6.44 11.368 6.44C11.512 6.44 11.836 6.464 12.34 6.512C12.868 6.56 13.18 6.584 13.276 6.584C13.636 6.584 14.128 6.572 14.752 6.548C15.376 6.524 15.784 6.512 15.976 6.512C16.432 6.512 16.72 6.68 16.84 7.016C17.128 7.64 17.644 8.768 18.388 10.4C19.132 12.008 19.72 13.292 20.152 14.252C20.608 15.212 21.184 16.436 21.88 17.924C22.576 19.412 23.14 20.624 23.572 21.56C24.004 22.472 24.448 23.396 24.904 24.332C25.384 25.268 25.744 25.964 25.984 26.42C26.248 26.852 26.416 27.068 26.488 27.068C26.56 27.068 26.632 27.032 26.704 26.96C26.8 26.864 26.884 26.744 26.956 26.6C27.052 26.456 27.124 26.312 27.172 26.168C27.244 26.024 27.328 25.844 27.424 25.628C27.544 25.388 27.628 25.208 27.676 25.088L32.32 15.512C32.848 14.432 33.316 13.46 33.724 12.596C34.132 11.732 34.456 11.036 34.696 10.508C34.936 9.98 35.14 9.524 35.308 9.14C35.476 8.756 35.596 8.468 35.668 8.276C35.764 8.084 35.824 7.94 35.848 7.844C35.896 7.724 35.932 7.64 35.956 7.592C35.98 7.52 36.004 7.46 36.028 7.412C36.052 7.364 36.088 7.256 36.136 7.088C36.208 6.92 36.268 6.812 36.316 6.764C36.388 6.692 36.508 6.62 36.676 6.548C36.868 6.476 37.108 6.44 37.396 6.44C37.852 6.44 38.272 6.452 38.656 6.476C39.064 6.5 39.676 6.512 40.492 6.512C40.9 6.512 41.104 6.668 41.104 6.98C41.104 7.22 41.02 7.4 40.852 7.52C40.708 7.616 40.396 7.7 39.916 7.772C39.316 7.844 38.896 8.144 38.656 8.672C38.416 9.2 38.296 10.208 38.296 11.696C38.296 14.936 38.368 17.876 38.512 20.516C38.656 23.132 38.728 24.776 38.728 25.448C38.728 27.848 38.92 29.384 39.304 30.056C39.688 30.704 40.492 31.028 41.716 31.028C41.884 31.028 42.028 31.088 42.148 31.208C42.292 31.328 42.364 31.436 42.364 31.532C42.364 31.676 42.352 31.784 42.328 31.856C42.304 31.928 42.256 31.988 42.184 32.036C42.112 32.084 42.04 32.108 41.968 32.108C41.896 32.108 41.764 32.108 41.572 32.108C40.852 32.108 40.144 32.084 39.448 32.036C38.752 31.988 38.236 31.964 37.9 31.964C37.228 31.964 36.532 31.988 35.812 32.036C35.092 32.108 34.54 32.144 34.156 32.144C33.724 32.144 33.508 31.976 33.508 31.64C33.508 31.424 33.604 31.268 33.796 31.172C33.988 31.076 34.204 31.016 34.444 30.992C34.708 30.968 34.972 30.824 35.236 30.56C35.524 30.272 35.728 29.852 35.848 29.3C35.944 28.82 35.992 28.052 35.992 26.996C35.992 26.228 35.968 25.304 35.92 24.224C35.896 23.144 35.86 22.1 35.812 21.092C35.764 20.06 35.716 19.1 35.668 18.212C35.62 17.3 35.584 16.556 35.56 15.98L35.488 15.116C35.488 14.084 35.38 13.568 35.164 13.568C35.14 13.568 35.104 13.58 35.056 13.604C35.008 13.628 34.96 13.664 34.912 13.712C34.888 13.76 34.852 13.808 34.804 13.856C34.756 13.904 34.708 13.988 34.66 14.108C34.612 14.204 34.564 14.288 34.516 14.36C34.468 14.432 34.408 14.54 34.336 14.684C34.264 14.804 34.204 14.912 34.156 15.008C34.108 15.104 34.036 15.236 33.94 15.404C33.868 15.572 33.808 15.716 33.76 15.836L28.756 25.952C28.18 27.128 27.568 28.388 26.92 29.732C26.488 30.644 26.224 31.184 26.128 31.352C26.032 31.496 25.912 31.568 25.768 31.568C25.552 31.568 25.372 31.472 25.228 31.28C25.084 31.064 24.868 30.608 24.58 29.912C24.292 29.216 24.04 28.64 23.824 28.184C19.432 19.256 17.176 14.708 17.056 14.54C16.984 14.444 16.912 14.396 16.84 14.396C16.648 14.396 16.552 14.876 16.552 15.836C16.528 17.708 16.468 19.556 16.372 21.38C16.276 23.204 16.228 24.524 16.228 25.34V26.96C16.228 27.584 16.24 28.064 16.264 28.4C16.312 28.736 16.408 29.132 16.552 29.588C16.72 30.02 17.008 30.356 17.416 30.596C17.824 30.836 18.352 30.992 19 31.064C19.12 31.064 19.228 31.112 19.324 31.208C19.444 31.28 19.504 31.364 19.504 31.46C19.504 31.724 19.468 31.904 19.396 32C19.324 32.072 19.18 32.108 18.964 32.108C18.484 32.108 17.764 32.084 16.804 32.036C15.844 31.988 15.316 31.964 15.22 31.964C15.172 31.964 14.824 31.976 14.176 32C13.528 32.048 12.892 32.072 12.268 32.072C12.076 32.072 11.932 32.06 11.836 32.036C11.764 32.012 11.692 31.964 11.62 31.892C11.548 31.796 11.512 31.664 11.512 31.496C11.512 31.304 11.62 31.172 11.836 31.1C12.052 31.028 12.292 30.992 12.556 30.992C12.844 30.968 13.156 30.776 13.492 30.416C13.828 30.032 14.08 29.48 14.248 28.76C14.368 28.232 14.512 26.144 14.68 22.496C14.848 18.848 14.932 16.148 14.932 14.396C14.932 11.996 14.692 10.34 14.212 9.428C13.756 8.516 12.748 7.88 11.188 7.52C10.876 7.448 10.72 7.268 10.72 6.98Z" fill="#3A0C5E"/>
</g>
</g>
<defs>
<clipPath id="clip0_2_124">
<rect width="173" height="43" fill="white"/>
</clipPath>
</defs>
</svg>
