<svg width="180" height="43" viewBox="0 0 180 43" fill="none" xmlns="http://www.w3.org/2000/svg">
<g clip-path="url(#clip0_1_2)">
<g style="mix-blend-mode:darken">
<path d="M150.72 7.944C150.72 7.608 151.056 7.44 151.728 7.44C151.848 7.44 152.304 7.464 153.096 7.512C153.912 7.56 154.776 7.584 155.688 7.584C155.904 7.584 156.276 7.572 156.804 7.548C157.356 7.524 157.764 7.512 158.028 7.512C158.58 7.512 158.916 7.536 159.036 7.584C159.156 7.632 159.216 7.74 159.216 7.908C159.216 8.052 159.096 8.184 158.856 8.304C158.616 8.424 158.364 8.592 158.1 8.808C157.86 9 157.74 9.264 157.74 9.6C157.74 9.912 157.776 10.236 157.848 10.572C157.944 10.884 158.136 11.376 158.424 12.048C158.712 12.72 159 13.392 159.288 14.064C159.6 14.736 160.092 15.828 160.764 17.34C161.46 18.828 162.132 20.304 162.78 21.768C164.796 26.4 165.996 28.716 166.38 28.716C166.5 28.716 167.184 27.264 168.432 24.36C169.704 21.456 170.952 18.42 172.176 15.252C173.4 12.084 174.012 10.212 174.012 9.636C174.012 9.252 173.868 8.964 173.58 8.772C173.316 8.556 173.028 8.436 172.716 8.412C172.404 8.364 172.104 8.304 171.816 8.232C171.552 8.136 171.42 7.992 171.42 7.8C171.42 7.632 171.456 7.536 171.528 7.512C171.624 7.464 171.84 7.44 172.176 7.44C172.248 7.44 172.524 7.452 173.004 7.476C173.484 7.476 173.964 7.476 174.444 7.476C174.876 7.476 175.356 7.464 175.884 7.44C176.436 7.416 177.024 7.404 177.648 7.404C178.104 7.404 178.332 7.572 178.332 7.908C178.332 8.076 178.248 8.22 178.08 8.34C177.936 8.46 177.756 8.568 177.54 8.664C177.324 8.76 177.072 8.964 176.784 9.276C176.496 9.588 176.244 9.996 176.028 10.5L168 28.788C167.424 30.084 166.86 31.404 166.308 32.748C166.044 33.396 165.876 33.78 165.804 33.9C165.732 34.02 165.636 34.08 165.516 34.08C165.084 34.08 164.544 33.252 163.896 31.596C163.272 30.036 162.036 27.252 160.188 23.244C159.276 21.252 158.448 19.416 157.704 17.736C156.96 16.056 156.42 14.82 156.084 14.028C155.772 13.236 155.472 12.528 155.184 11.904C154.92 11.28 154.716 10.836 154.572 10.572C154.428 10.308 154.26 10.068 154.068 9.852C153.66 9.396 153.228 9.072 152.772 8.88C152.34 8.688 151.98 8.604 151.692 8.628C151.428 8.628 151.2 8.592 151.008 8.52C150.816 8.424 150.72 8.232 150.72 7.944Z" fill="#3A0C5E"/>
</g>
<g style="mix-blend-mode:darken">
<path d="M133.998 7.84304C134.002 7.50706 134.339 7.34264 135.011 7.34978C135.107 7.3508 135.263 7.36445 135.479 7.39075C135.695 7.41704 135.862 7.43083 135.982 7.4321C136.054 7.43287 137.182 7.48085 139.365 7.57605C141.548 7.64725 143.348 7.69038 144.764 7.70542C145.268 7.71078 146.504 7.69991 148.473 7.67283C150.465 7.646 151.629 7.63436 151.965 7.63793C152.421 7.64278 152.646 7.92119 152.64 8.47316C152.639 8.61715 152.562 9.09636 152.409 9.91078C152.257 10.7012 152.177 11.4444 152.169 12.1404C152.167 12.3563 152.105 12.5477 151.983 12.7144C151.862 12.8571 151.729 12.9277 151.585 12.9262C151.225 12.9224 151.048 12.6685 151.053 12.1645C151.06 11.5165 150.862 10.9264 150.46 10.3941C150.057 9.86179 149.556 9.58045 148.957 9.55008C146.799 9.35913 145.144 9.25754 143.992 9.2453L143.056 9.23536C141.808 9.2221 141.075 9.31031 140.857 9.50001C140.663 9.66596 140.536 10.3006 140.476 11.4041C140.362 13.131 140.293 15.1343 140.269 17.4142C140.256 18.6141 140.477 19.2285 140.933 19.2574L141.833 19.2669L143.345 19.283L144.461 19.2949C145.901 19.3102 146.861 19.2724 147.342 19.1815C147.823 19.0906 148.257 18.9152 148.644 18.6553C149.103 18.3481 149.384 17.9071 149.486 17.3321C149.562 16.9249 149.733 16.7227 149.996 16.7255C150.212 16.7278 150.344 16.7652 150.391 16.8377C150.439 16.9102 150.461 17.0665 150.458 17.3065C150.457 17.4745 150.403 18.0259 150.297 18.9608C150.191 19.8958 150.135 20.6032 150.13 21.0832C150.125 21.5392 150.133 21.9713 150.152 22.3795C150.196 22.788 150.217 23.0882 150.215 23.2802C150.208 23.8802 150.121 24.1793 149.953 24.1775C149.593 24.1737 149.332 23.8829 149.171 23.3051C148.845 22.2936 148.552 21.7025 148.289 21.5317C147.789 21.1903 146.639 21.0101 144.839 20.991C144.119 20.9833 143.531 20.9771 143.075 20.9722C142.643 20.9676 142.355 20.9646 142.211 20.963C142.091 20.9378 141.983 20.9246 141.887 20.9236C141.815 20.9228 141.743 20.9221 141.671 20.9213C140.687 20.9109 140.193 21.1336 140.188 21.5896C140.181 22.2855 140.16 23.1614 140.124 24.2171C140.089 25.2487 140.068 26.1006 140.061 26.7725L140.046 28.2125C140.028 29.9404 140.305 30.8914 140.88 31.0655C141.478 31.2638 141.992 31.3653 142.424 31.3699C144.224 31.389 145.797 31.3217 147.143 31.168C148.513 31.0146 149.535 30.8214 150.209 30.5886C150.908 30.332 151.487 30.0621 151.946 29.779C152.405 29.4718 152.696 29.1989 152.819 28.9602C152.965 28.6978 153.1 28.4832 153.222 28.3165C153.367 28.15 153.512 28.0675 153.656 28.0691C153.944 28.0721 154.086 28.2776 154.082 28.6856C154.071 29.7176 153.544 30.756 152.5 31.801C151.457 32.846 150.552 33.3644 149.784 33.3562C148.056 33.3378 146.101 33.2571 143.918 33.1139C141.759 32.9709 140.416 32.8966 139.888 32.891C139.216 32.8839 138.376 32.935 137.366 33.0443C136.357 33.1295 135.565 33.1691 134.989 33.163C134.485 33.1576 134.234 33.035 134.237 32.795C134.239 32.579 134.241 32.435 134.241 32.363C134.242 32.291 134.279 32.2314 134.351 32.1842C134.424 32.1369 134.496 32.1137 134.568 32.1145C134.664 32.0915 134.821 32.0451 135.038 31.9754C135.278 31.906 135.531 31.8127 135.797 31.6955C136.376 31.4136 136.754 30.8536 136.931 30.0155C137.131 29.1775 137.246 27.4147 137.275 24.7268L137.322 20.2631C137.329 19.6151 137.352 18.6073 137.39 17.2396C137.453 15.8722 137.488 14.8045 137.496 14.0366C137.503 13.3886 137.491 12.2964 137.459 10.76C137.443 10.0638 137.148 9.52061 136.576 9.13051C136.005 8.74041 135.335 8.52928 134.567 8.49712C134.183 8.49304 133.993 8.27501 133.998 7.84304Z" fill="#DA1F1F"/>
</g>
<g style="mix-blend-mode:darken">
<path d="M110.656 7.70751C110.656 7.49151 110.752 7.37151 110.944 7.34752C111.16 7.29952 111.676 7.27552 112.492 7.27552L115.624 7.27552C116.224 7.27552 117.328 7.25152 118.936 7.20351C120.544 7.15552 121.78 7.13152 122.644 7.13152C124.3 7.13152 125.956 7.38352 127.612 7.88751C129.268 8.39152 130.792 9.12352 132.184 10.0835C133.576 11.0195 134.704 12.2555 135.568 13.7915C136.432 15.3035 136.864 16.9955 136.864 18.8675C136.864 20.5475 136.744 22.0115 136.504 23.2595C136.288 24.4835 135.916 25.5515 135.388 26.4635C134.86 27.3515 134.332 28.0835 133.804 28.6595C133.276 29.2115 132.556 29.8715 131.644 30.6395C130.924 31.2155 129.88 31.7555 128.512 32.2595C127.144 32.7635 125.74 33.0155 124.3 33.0155C124.156 33.0155 122.932 32.9795 120.628 32.9075C118.324 32.8595 116.668 32.8355 115.66 32.8355C114.82 32.8355 114.04 32.8595 113.32 32.9075C112.6 32.9795 112.18 33.0155 112.06 33.0155C111.484 33.0155 111.196 32.8595 111.196 32.5475C111.196 32.3555 111.232 32.2235 111.304 32.1515C111.4 32.0555 111.58 31.9715 111.844 31.8995C112.132 31.8275 112.336 31.7675 112.456 31.7195C112.84 31.5515 113.188 31.2395 113.5 30.7835C113.836 30.3035 114.004 29.8355 114.004 29.3795C114.004 28.0355 114.004 26.3195 114.004 24.2315C114.028 22.1435 114.04 20.6075 114.04 19.6235C114.04 18.7595 114.028 17.4155 114.004 15.5915C114.004 13.7435 114.004 12.0395 114.004 10.4795C114.004 10.0715 113.8 9.66352 113.392 9.25552C113.008 8.82352 112.576 8.59552 112.096 8.57151C111.76 8.54751 111.508 8.52351 111.34 8.49952C111.196 8.47552 111.04 8.40352 110.872 8.28352C110.728 8.13951 110.656 7.94751 110.656 7.70751ZM117.028 27.8315C117.028 28.2875 117.028 28.6595 117.028 28.9475C117.052 29.2355 117.1 29.4995 117.172 29.7395C117.268 29.9795 117.34 30.1475 117.388 30.2435C117.436 30.3395 117.58 30.4475 117.82 30.5675C118.06 30.6875 118.24 30.7715 118.36 30.8195C118.504 30.8435 118.792 30.9155 119.224 31.0355C119.656 31.1555 120.016 31.2515 120.304 31.3235C121.144 31.5635 122.02 31.6835 122.932 31.6835L123.652 31.6835C125.284 31.6835 126.676 31.4555 127.828 30.9995C128.98 30.5195 130.084 29.7755 131.14 28.7675C132.916 27.0635 133.804 24.3035 133.804 20.4875C133.804 18.5675 133.42 16.8275 132.652 15.2675C131.908 13.7075 130.924 12.4715 129.7 11.5595C128.476 10.6235 127.156 9.91552 125.74 9.43552C124.324 8.93152 122.896 8.67952 121.456 8.67952C120.808 8.67952 120.328 8.67952 120.016 8.67952C119.728 8.67952 119.38 8.71552 118.972 8.78752C118.588 8.83552 118.324 8.88352 118.18 8.93152C118.06 8.95552 117.904 9.07552 117.712 9.29152C117.52 9.48352 117.4 9.65152 117.352 9.79552C117.328 9.93952 117.28 10.2275 117.208 10.6595C117.16 11.0675 117.136 11.4275 117.136 11.7395C117.136 12.0515 117.136 12.5555 117.136 13.2515C117.136 13.7795 117.124 15.0275 117.1 16.9955C117.076 18.9395 117.064 19.9955 117.064 20.1635C117.064 21.6035 117.052 23.1635 117.028 24.8435C117.028 26.5235 117.028 27.5195 117.028 27.8315Z" fill="#2FCA80"/>
</g>
<g style="mix-blend-mode:darken">
<path d="M97.1481 20.4981C97.1481 20.2581 97.2441 20.0061 97.4361 19.7421C97.6521 19.4781 98.3241 18.7341 99.4521 17.5101C102.308 14.4141 105.26 11.1501 108.308 7.71812C108.356 7.64612 108.452 7.52612 108.596 7.35812C108.764 7.16612 108.896 7.01012 108.992 6.89012C109.112 6.74612 109.244 6.60212 109.388 6.45812C109.556 6.31412 109.7 6.20612 109.82 6.13412C109.94 6.03812 110.048 5.99012 110.144 5.99012C110.408 5.99012 110.54 6.27812 110.54 6.85412C110.54 6.87812 110.504 7.71812 110.432 9.37412C110.36 11.0061 110.276 12.7461 110.18 14.5941C110.108 16.4181 110.072 17.5821 110.072 18.0861C110.072 18.4221 110.288 18.5901 110.72 18.5901C111.296 18.5901 111.764 18.5541 112.124 18.4821C112.484 18.3861 112.712 18.2901 112.808 18.1941C112.904 18.0741 113 17.9781 113.096 17.9061C113.192 17.8101 113.3 17.7621 113.42 17.7621C113.732 17.7621 113.888 17.9181 113.888 18.2301C113.888 18.3741 113.852 18.5421 113.78 18.7341C113.732 18.9261 113.648 19.1661 113.528 19.4541C113.408 19.7181 113.324 19.9101 113.276 20.0301C113.252 20.0781 113.216 20.1741 113.168 20.3181C113.12 20.4381 113.072 20.5461 113.024 20.6421C113 20.7141 112.952 20.7981 112.88 20.8941C112.832 20.9901 112.772 21.0621 112.7 21.1101C112.628 21.1581 112.544 21.1821 112.448 21.1821C112.256 21.1821 111.92 21.1701 111.44 21.1461C110.96 21.1461 110.636 21.1461 110.468 21.1461C110.252 21.1461 110.108 21.1941 110.036 21.2901C109.988 21.3861 109.964 21.5661 109.964 21.8301C109.964 22.1901 109.976 22.8141 110 23.7021C110.048 24.6141 110.072 25.2621 110.072 25.6461C110.072 25.6941 110.072 25.8261 110.072 26.0421C110.096 26.2581 110.108 26.4381 110.108 26.5821C110.108 27.0381 109.916 27.3261 109.532 27.4461C108.908 27.6141 108.38 27.6981 107.948 27.6981C107.492 27.6981 107.264 27.5301 107.264 27.1941C107.264 27.0981 107.276 26.9781 107.3 26.8341C107.348 26.7141 107.384 26.5341 107.408 26.2941C107.432 26.0781 107.456 25.5621 107.48 24.7461C107.528 23.9301 107.552 22.8741 107.552 21.5781C107.552 21.1941 107.444 21.0021 107.228 21.0021C106.94 21.0021 106.184 21.0141 104.96 21.0381C103.736 21.0621 102.704 21.0741 101.864 21.0741C101.336 21.0741 100.664 21.0621 99.8481 21.0381C99.0561 21.0381 98.4921 21.0381 98.1561 21.0381C97.8681 21.0381 97.6641 21.0261 97.5441 21.0021C97.4481 21.0021 97.3521 20.9661 97.2561 20.8941C97.1841 20.7981 97.1481 20.6661 97.1481 20.4981ZM100.496 18.2661C100.496 18.5541 100.952 18.6981 101.864 18.6981L103.196 18.6981C103.46 18.6981 103.916 18.7101 104.564 18.7341C105.236 18.7341 105.728 18.7341 106.04 18.7341C106.688 18.7341 107.12 18.7221 107.336 18.6981C107.552 18.6501 107.66 18.5421 107.66 18.3741C107.732 14.9661 107.768 12.5781 107.768 11.2101C107.768 10.6341 107.708 10.3461 107.588 10.3461C107.468 10.3461 107.072 10.7061 106.4 11.4261C105.728 12.1221 105.272 12.6141 105.032 12.9021C104.576 13.4781 103.94 14.2101 103.124 15.0981C102.332 15.9621 101.696 16.6821 101.216 17.2581C100.736 17.8101 100.496 18.1461 100.496 18.2661Z" fill="#DD425E"/>
</g>
<g style="mix-blend-mode:darken">
<path d="M90.72 7.98C90.72 7.62 91.056 7.44 91.728 7.44C91.968 7.44 92.52 7.464 93.384 7.512C94.248 7.56 95.052 7.584 95.796 7.584C96.252 7.584 96.684 7.572 97.092 7.548C97.524 7.524 98.148 7.512 98.964 7.512C99.612 7.512 99.936 7.68 99.936 8.016C99.936 8.208 99.384 8.532 98.28 8.988C97.512 9.3 97.128 10.68 97.128 13.128C97.128 16.368 97.104 19.236 97.056 21.732C97.032 24.204 97.02 25.776 97.02 26.448C97.02 28.464 97.32 29.916 97.92 30.804C98.448 31.548 99.024 31.92 99.648 31.92C99.696 31.92 99.816 31.932 100.008 31.956C100.2 31.956 100.32 31.956 100.368 31.956C100.536 31.956 100.704 32.004 100.872 32.1C101.04 32.172 101.124 32.256 101.124 32.352C101.124 32.616 101.052 32.796 100.908 32.892C100.788 32.964 100.56 33 100.224 33C99.504 33 98.832 32.976 98.208 32.928C97.608 32.88 97.14 32.856 96.804 32.856C96.132 32.856 95.4 32.892 94.608 32.964C93.816 33.012 93.228 33.036 92.844 33.036C91.764 33.036 91.224 32.856 91.224 32.496C91.224 32.28 91.332 32.136 91.548 32.064C91.788 31.968 92.052 31.908 92.34 31.884C92.628 31.836 92.928 31.68 93.24 31.416C93.552 31.128 93.768 30.72 93.888 30.192C93.936 30.024 94.008 28.668 94.104 26.124C94.224 23.556 94.284 21.708 94.284 20.58V18.528C94.284 18.216 94.284 17.628 94.284 16.764C94.308 15.876 94.32 15.168 94.32 14.64V12.984C94.32 11.928 94.272 11.052 94.176 10.356C94.104 9.78 93.78 9.336 93.204 9.024C92.652 8.712 92.076 8.544 91.476 8.52C90.972 8.496 90.72 8.316 90.72 7.98Z" fill="#5D1199"/>
</g>
<g style="mix-blend-mode:darken">
<path d="M66.584 20.336C66.584 17.72 67.088 15.368 68.096 13.28C69.104 11.192 70.652 9.512 72.74 8.24C74.852 6.944 77.348 6.296 80.228 6.296C81.692 6.296 83.168 6.512 84.656 6.944C86.144 7.376 87.332 7.808 88.22 8.24L89.552 8.924C89.624 8.924 89.744 8.864 89.912 8.744C90.08 8.624 90.212 8.564 90.308 8.564C90.428 8.564 90.548 8.612 90.668 8.708C90.788 8.804 90.848 8.948 90.848 9.14C90.872 9.836 90.92 10.58 90.992 11.372C91.088 12.14 91.172 12.776 91.244 13.28C91.316 13.784 91.352 14.084 91.352 14.18C91.352 14.612 91.208 14.828 90.92 14.828C90.704 14.828 90.5 14.66 90.308 14.324C87.98 9.956 84.62 7.772 80.228 7.772C77.228 7.772 74.768 8.732 72.848 10.652C70.928 12.572 69.968 15.08 69.968 18.176C69.968 19.88 70.184 21.476 70.616 22.964C71.072 24.452 71.744 25.82 72.632 27.068C73.544 28.292 74.792 29.264 76.376 29.984C77.96 30.704 79.808 31.064 81.92 31.064C85.376 31.064 88.28 29.264 90.632 25.664C90.728 25.496 90.908 25.412 91.172 25.412C91.388 25.412 91.496 25.58 91.496 25.916C91.496 26.18 91.448 26.54 91.352 26.996C91.28 27.428 91.184 27.92 91.064 28.472C90.944 29 90.872 29.324 90.848 29.444C90.8 29.708 90.608 29.924 90.272 30.092C88.976 30.716 87.956 31.184 87.212 31.496C86.492 31.808 85.568 32.084 84.44 32.324C83.312 32.588 82.16 32.72 80.984 32.72C78.896 32.72 77.012 32.468 75.332 31.964C73.652 31.46 72.272 30.8 71.192 29.984C70.136 29.168 69.248 28.22 68.528 27.14C67.808 26.036 67.304 24.932 67.016 23.828C66.728 22.7 66.584 21.536 66.584 20.336Z" fill="#F31982"/>
</g>
<g style="mix-blend-mode:darken">
<path d="M48.72 7.944C48.72 7.56 49.068 7.368 49.764 7.368H55.74C56.292 7.368 56.928 7.356 57.648 7.332C58.368 7.284 58.932 7.26 59.34 7.26C61.5 7.26 63.348 7.812 64.884 8.916C66.42 9.996 67.188 11.46 67.188 13.308C67.188 14.532 66.948 15.612 66.468 16.548C66.012 17.46 65.496 18.12 64.92 18.528C64.368 18.936 63.852 19.296 63.372 19.608C62.916 19.896 62.688 20.088 62.688 20.184C62.688 20.472 63.696 22.032 65.712 24.864C67.728 27.672 69.108 29.472 69.852 30.264C70.764 31.392 71.868 31.956 73.164 31.956C73.5 31.956 73.668 32.1 73.668 32.388C73.668 32.748 73.524 32.988 73.236 33.108C72.948 33.228 72.204 33.288 71.004 33.288C69.876 33.288 68.844 33.012 67.908 32.46C66.708 31.764 64.68 29.076 61.824 24.396C61.656 24.132 61.536 23.94 61.464 23.82C60.312 21.948 59.424 21.012 58.8 21.012H58.044H55.848C55.56 21.012 55.38 21.132 55.308 21.372C55.26 21.612 55.236 22.344 55.236 23.568C55.236 24.72 55.236 25.668 55.236 26.412C55.236 27.156 55.236 27.636 55.236 27.852C55.26 28.044 55.272 28.212 55.272 28.356C55.272 28.476 55.272 28.572 55.272 28.644C55.272 29.628 55.5 30.396 55.956 30.948C56.412 31.476 56.916 31.788 57.468 31.884C58.044 31.956 58.56 32.052 59.016 32.172C59.472 32.268 59.7 32.436 59.7 32.676C59.7 33.06 59.484 33.252 59.052 33.252C59.028 33.252 58.2 33.204 56.568 33.108C54.936 33.036 54.048 33 53.904 33C53.208 33 52.38 33.024 51.42 33.072C50.46 33.12 49.968 33.144 49.944 33.144C49.44 33.144 49.188 32.952 49.188 32.568C49.188 32.304 49.344 32.124 49.656 32.028C49.968 31.908 50.316 31.824 50.7 31.776C51.084 31.728 51.432 31.464 51.744 30.984C52.056 30.504 52.212 29.82 52.212 28.932C52.212 28.308 52.212 26.628 52.212 23.892C52.236 21.156 52.248 19.056 52.248 17.592C52.248 16.104 52.236 14.748 52.212 13.524C52.212 12.276 52.212 11.604 52.212 11.508C52.212 10.62 52.032 9.948 51.672 9.492C51.312 9.012 50.904 8.748 50.448 8.7C50.016 8.628 49.62 8.544 49.26 8.448C48.9 8.352 48.72 8.184 48.72 7.944ZM55.236 13.704C55.236 16.176 55.248 17.712 55.272 18.312C55.296 18.888 55.38 19.224 55.524 19.32C55.884 19.536 56.4 19.644 57.072 19.644H57.432H58.476C60.516 19.644 61.968 19.176 62.832 18.24C63.72 17.304 64.164 16.104 64.164 14.64C64.164 13.152 63.576 11.796 62.4 10.572C61.248 9.348 59.496 8.736 57.144 8.736C56.256 8.736 55.716 8.976 55.524 9.456C55.332 9.912 55.236 10.992 55.236 12.696V13.704Z" fill="#1FB71C"/>
</g>
<g style="mix-blend-mode:darken">
<path d="M30.72 7.836C30.72 7.5 31.056 7.332 31.728 7.332C31.824 7.332 31.98 7.344 32.196 7.368C32.412 7.392 32.58 7.404 32.7 7.404C32.772 7.404 33.9 7.44 36.084 7.512C38.268 7.56 40.068 7.584 41.484 7.584C41.988 7.584 43.224 7.56 45.192 7.512C47.184 7.464 48.348 7.44 48.684 7.44C49.14 7.44 49.368 7.716 49.368 8.268C49.368 8.412 49.296 8.892 49.152 9.708C49.008 10.5 48.936 11.244 48.936 11.94C48.936 12.156 48.876 12.348 48.756 12.516C48.636 12.66 48.504 12.732 48.36 12.732C48 12.732 47.82 12.48 47.82 11.976C47.82 11.328 47.616 10.74 47.208 10.212C46.8 9.684 46.296 9.408 45.696 9.384C43.536 9.216 41.88 9.132 40.728 9.132H39.792C38.544 9.132 37.812 9.228 37.596 9.42C37.404 9.588 37.284 10.224 37.236 11.328C37.14 13.056 37.092 15.06 37.092 17.34C37.092 18.54 37.32 19.152 37.776 19.176H38.676H40.188H41.304C42.744 19.176 43.704 19.128 44.184 19.032C44.664 18.936 45.096 18.756 45.48 18.492C45.936 18.18 46.212 17.736 46.308 17.16C46.38 16.752 46.548 16.548 46.812 16.548C47.028 16.548 47.16 16.584 47.208 16.656C47.256 16.728 47.28 16.884 47.28 17.124C47.28 17.292 47.232 17.844 47.136 18.78C47.04 19.716 46.992 20.424 46.992 20.904C46.992 21.36 47.004 21.792 47.028 22.2C47.076 22.608 47.1 22.908 47.1 23.1C47.1 23.7 47.016 24 46.848 24C46.488 24 46.224 23.712 46.056 23.136C45.72 22.128 45.42 21.54 45.156 21.372C44.652 21.036 43.5 20.868 41.7 20.868C40.98 20.868 40.392 20.868 39.936 20.868C39.504 20.868 39.216 20.868 39.072 20.868C38.952 20.844 38.844 20.832 38.748 20.832C38.676 20.832 38.604 20.832 38.532 20.832C37.548 20.832 37.056 21.06 37.056 21.516C37.056 22.212 37.044 23.088 37.02 24.144C36.996 25.176 36.984 26.028 36.984 26.7V28.14C36.984 29.868 37.272 30.816 37.848 30.984C38.448 31.176 38.964 31.272 39.396 31.272C41.196 31.272 42.768 31.188 44.112 31.02C45.48 30.852 46.5 30.648 47.172 30.408C47.868 30.144 48.444 29.868 48.9 29.58C49.356 29.268 49.644 28.992 49.764 28.752C49.908 28.488 50.04 28.272 50.16 28.104C50.304 27.936 50.448 27.852 50.592 27.852C50.88 27.852 51.024 28.056 51.024 28.464C51.024 29.496 50.508 30.54 49.476 31.596C48.444 32.652 47.544 33.18 46.776 33.18C45.048 33.18 43.092 33.12 40.908 33C38.748 32.88 37.404 32.82 36.876 32.82C36.204 32.82 35.364 32.88 34.356 33C33.348 33.096 32.556 33.144 31.98 33.144C31.476 33.144 31.224 33.024 31.224 32.784C31.224 32.568 31.224 32.424 31.224 32.352C31.224 32.28 31.26 32.22 31.332 32.172C31.404 32.124 31.476 32.1 31.548 32.1C31.644 32.076 31.8 32.028 32.016 31.956C32.256 31.884 32.508 31.788 32.772 31.668C33.348 31.38 33.72 30.816 33.888 29.976C34.08 29.136 34.176 27.372 34.176 24.684V20.22C34.176 19.572 34.188 18.564 34.212 17.196C34.26 15.828 34.284 14.76 34.284 13.992C34.284 13.344 34.26 12.252 34.212 10.716C34.188 10.02 33.888 9.48 33.312 9.096C32.736 8.712 32.064 8.508 31.296 8.484C30.912 8.484 30.72 8.268 30.72 7.836Z" fill="#E46E00"/>
</g>
<g style="mix-blend-mode:darken">
<path d="M0.72 7.98C0.72 7.62 0.936 7.44 1.368 7.44C1.512 7.44 1.836 7.464 2.34 7.512C2.868 7.56 3.18 7.584 3.276 7.584C3.636 7.584 4.128 7.572 4.752 7.548C5.376 7.524 5.784 7.512 5.976 7.512C6.432 7.512 6.72 7.68 6.84 8.016C7.128 8.64 7.644 9.768 8.388 11.4C9.132 13.008 9.72 14.292 10.152 15.252C10.608 16.212 11.184 17.436 11.88 18.924C12.576 20.412 13.14 21.624 13.572 22.56C14.004 23.472 14.448 24.396 14.904 25.332C15.384 26.268 15.744 26.964 15.984 27.42C16.248 27.852 16.416 28.068 16.488 28.068C16.56 28.068 16.632 28.032 16.704 27.96C16.8 27.864 16.884 27.744 16.956 27.6C17.052 27.456 17.124 27.312 17.172 27.168C17.244 27.024 17.328 26.844 17.424 26.628C17.544 26.388 17.628 26.208 17.676 26.088L22.32 16.512C22.848 15.432 23.316 14.46 23.724 13.596C24.132 12.732 24.456 12.036 24.696 11.508C24.936 10.98 25.14 10.524 25.308 10.14C25.476 9.756 25.596 9.468 25.668 9.276C25.764 9.084 25.824 8.94 25.848 8.844C25.896 8.724 25.932 8.64 25.956 8.592C25.98 8.52 26.004 8.46 26.028 8.412C26.052 8.364 26.088 8.256 26.136 8.088C26.208 7.92 26.268 7.812 26.316 7.764C26.388 7.692 26.508 7.62 26.676 7.548C26.868 7.476 27.108 7.44 27.396 7.44C27.852 7.44 28.272 7.452 28.656 7.476C29.064 7.5 29.676 7.512 30.492 7.512C30.9 7.512 31.104 7.668 31.104 7.98C31.104 8.22 31.02 8.4 30.852 8.52C30.708 8.616 30.396 8.7 29.916 8.772C29.316 8.844 28.896 9.144 28.656 9.672C28.416 10.2 28.296 11.208 28.296 12.696C28.296 15.936 28.368 18.876 28.512 21.516C28.656 24.132 28.728 25.776 28.728 26.448C28.728 28.848 28.92 30.384 29.304 31.056C29.688 31.704 30.492 32.028 31.716 32.028C31.884 32.028 32.028 32.088 32.148 32.208C32.292 32.328 32.364 32.436 32.364 32.532C32.364 32.676 32.352 32.784 32.328 32.856C32.304 32.928 32.256 32.988 32.184 33.036C32.112 33.084 32.04 33.108 31.968 33.108C31.896 33.108 31.764 33.108 31.572 33.108C30.852 33.108 30.144 33.084 29.448 33.036C28.752 32.988 28.236 32.964 27.9 32.964C27.228 32.964 26.532 32.988 25.812 33.036C25.092 33.108 24.54 33.144 24.156 33.144C23.724 33.144 23.508 32.976 23.508 32.64C23.508 32.424 23.604 32.268 23.796 32.172C23.988 32.076 24.204 32.016 24.444 31.992C24.708 31.968 24.972 31.824 25.236 31.56C25.524 31.272 25.728 30.852 25.848 30.3C25.944 29.82 25.992 29.052 25.992 27.996C25.992 27.228 25.968 26.304 25.92 25.224C25.896 24.144 25.86 23.1 25.812 22.092C25.764 21.06 25.716 20.1 25.668 19.212C25.62 18.3 25.584 17.556 25.56 16.98L25.488 16.116C25.488 15.084 25.38 14.568 25.164 14.568C25.14 14.568 25.104 14.58 25.056 14.604C25.008 14.628 24.96 14.664 24.912 14.712C24.888 14.76 24.852 14.808 24.804 14.856C24.756 14.904 24.708 14.988 24.66 15.108C24.612 15.204 24.564 15.288 24.516 15.36C24.468 15.432 24.408 15.54 24.336 15.684C24.264 15.804 24.204 15.912 24.156 16.008C24.108 16.104 24.036 16.236 23.94 16.404C23.868 16.572 23.808 16.716 23.76 16.836L18.756 26.952C18.18 28.128 17.568 29.388 16.92 30.732C16.488 31.644 16.224 32.184 16.128 32.352C16.032 32.496 15.912 32.568 15.768 32.568C15.552 32.568 15.372 32.472 15.228 32.28C15.084 32.064 14.868 31.608 14.58 30.912C14.292 30.216 14.04 29.64 13.824 29.184C9.432 20.256 7.176 15.708 7.056 15.54C6.984 15.444 6.912 15.396 6.84 15.396C6.648 15.396 6.552 15.876 6.552 16.836C6.528 18.708 6.468 20.556 6.372 22.38C6.276 24.204 6.228 25.524 6.228 26.34V27.96C6.228 28.584 6.24 29.064 6.264 29.4C6.312 29.736 6.408 30.132 6.552 30.588C6.72 31.02 7.008 31.356 7.416 31.596C7.824 31.836 8.352 31.992 9 32.064C9.12 32.064 9.228 32.112 9.324 32.208C9.444 32.28 9.504 32.364 9.504 32.46C9.504 32.724 9.468 32.904 9.396 33C9.324 33.072 9.18 33.108 8.964 33.108C8.484 33.108 7.764 33.084 6.804 33.036C5.844 32.988 5.316 32.964 5.22 32.964C5.172 32.964 4.824 32.976 4.176 33C3.528 33.048 2.892 33.072 2.268 33.072C2.076 33.072 1.932 33.06 1.836 33.036C1.764 33.012 1.692 32.964 1.62 32.892C1.548 32.796 1.512 32.664 1.512 32.496C1.512 32.304 1.62 32.172 1.836 32.1C2.052 32.028 2.292 31.992 2.556 31.992C2.844 31.968 3.156 31.776 3.492 31.416C3.828 31.032 4.08 30.48 4.248 29.76C4.368 29.232 4.512 27.144 4.68 23.496C4.848 19.848 4.932 17.148 4.932 15.396C4.932 12.996 4.692 11.34 4.212 10.428C3.756 9.516 2.748 8.88 1.188 8.52C0.876 8.448 0.72 8.268 0.72 7.98Z" fill="#3A0C5E"/>
</g>
</g>
<defs>
<clipPath id="clip0_1_2">
<rect width="180" height="43" fill="white"/>
</clipPath>
</defs>
</svg>
